<?xml version="1.0" standalone="no"?>
<!DOCTYPE svg PUBLIC "-//W3C//DTD SVG 20010904//EN"
 "http://www.w3.org/TR/2001/REC-SVG-20010904/DTD/svg10.dtd">
<svg version="1.0" xmlns="http://www.w3.org/2000/svg"
 width="512.000000pt" height="512.000000pt" viewBox="0 0 512.000000 512.000000"
 preserveAspectRatio="xMidYMid meet">

<g transform="translate(0.000000,512.000000) scale(0.100000,-0.100000)"
fill="#000000" stroke="none">
<path d="M1916 5104 c-297 -65 -524 -305 -572 -604 -11 -68 -84 -1283 -84
-1399 l0 -31 -304 0 c-191 0 -315 -4 -333 -11 -42 -15 -92 -68 -103 -109 -5
-19 -10 -82 -10 -140 0 -81 5 -114 19 -146 22 -48 73 -91 119 -100 l32 -6 0
-468 c0 -266 4 -490 10 -519 13 -69 54 -128 114 -166 43 -26 61 -30 133 -34
l83 -3 0 -44 c0 -25 6 -60 14 -79 19 -45 58 -55 214 -55 l122 0 0 -497 0 -498
24 -50 c90 -195 374 -189 463 10 16 36 18 84 21 538 l3 497 679 0 679 0 3
-497 c3 -454 5 -502 21 -538 89 -199 373 -205 463 -10 l24 50 0 498 0 497 123
0 c155 0 194 10 213 55 8 19 14 55 14 80 l0 45 73 0 c60 0 83 5 128 28 66 33
113 93 128 162 7 33 11 220 11 524 l0 474 36 6 c49 10 111 68 125 119 6 23 9
90 7 153 -3 98 -6 115 -28 147 -13 20 -41 45 -61 56 -35 20 -53 21 -343 21
-236 0 -308 3 -311 13 -2 6 -20 314 -40 682 -19 369 -40 701 -46 740 -24 164
-84 280 -214 410 -73 74 -106 98 -175 132 -162 80 -132 77 -805 79 -504 2
-611 0 -669 -12z m1240 -165 c218 -39 408 -231 450 -454 8 -48 32 -421 59
-935 60 -1139 64 -1227 70 -1282 l6 -48 -1181 0 -1181 0 5 42 c3 24 8 97 11
163 3 66 10 197 15 290 6 94 28 512 50 930 24 449 46 793 55 840 32 174 149
328 308 404 45 22 105 44 132 49 72 14 1126 15 1201 1z m-1910 -2055 c-3 -9
-6 -47 -6 -85 l0 -69 -280 0 -280 0 0 85 0 85 286 0 c257 0 286 -2 280 -16z
m3194 -69 l0 -85 -280 0 -280 0 0 69 c0 38 -3 76 -6 85 -6 14 23 16 280 16
l286 0 0 -85z m-3215 -332 c-4 -43 -10 -136 -14 -206 l-7 -128 -46 -47 c-108
-113 -128 -170 -135 -394 l-6 -168 -54 0 c-67 0 -88 11 -102 51 -7 22 -11 184
-11 500 l0 469 190 0 190 0 -5 -77z m3045 -392 c0 -482 -3 -521 -40 -541 -10
-6 -44 -10 -74 -10 l-56 0 0 128 c0 70 -4 153 -10 186 -13 84 -61 177 -121
242 l-53 55 -7 127 c-4 70 -10 162 -14 205 l-5 77 190 0 190 0 0 -469z m-490
-73 c58 -34 105 -83 127 -133 14 -34 18 -78 21 -277 l4 -238 -1372 0 -1372 0
4 238 c3 221 5 240 26 287 13 27 33 60 45 73 23 25 83 59 127 73 14 4 547 7
1185 6 l1160 -2 45 -27z m-2072 -1314 l-3 -486 -29 -25 c-24 -20 -36 -24 -65
-19 -74 11 -71 -9 -71 532 l0 484 85 0 86 0 -3 -486z m1872 2 c0 -541 3 -521
-71 -532 -29 -5 -41 -1 -65 19 l-29 25 -3 486 -3 486 86 0 85 0 0 -484z"/>
<path d="M1992 4769 c-156 -30 -283 -156 -312 -308 -14 -77 -13 -89 15 -116
17 -18 35 -25 64 -25 52 0 74 23 89 97 15 74 50 125 110 160 l47 28 555 0 555
0 47 -28 c59 -35 94 -84 109 -156 20 -95 85 -129 146 -77 25 22 28 30 26 82
-7 161 -146 311 -318 343 -70 13 -1067 13 -1133 0z"/>
</g>
</svg>
